{
    "asset" : {
        "generator" : "Khronos glTF Blender I/O v0.9.33",
        "version" : "2.0"
    },
    "scene" : 0,
    "scenes" : [
        {
            "name" : "Scene",
            "nodes" : [
                0,
                1,
                2
            ]
        }
    ],
    "nodes" : [
        {
            "mesh" : 0,
            "name" : "All Cactus",
            "scale" : [
                0.016728460788726807,
                0.016728460788726807,
                0.016728460788726807
            ],
            "translation" : [
                -2.9693965911865234,
                0.31275585293769836,
                0.22851547598838806
            ]
        },
        {
            "name" : "Lamp",
            "rotation" : [
                0.16907575726509094,
                0.7558803558349609,
                -0.27217137813568115,
                0.570947527885437
            ],
            "translation" : [
                4.076245307922363,
                5.903861999511719,
                -1.0823888778686523
            ]
        },
        {
            "name" : "Camera",
            "rotation" : [
                0.483536034822464,
                0.33687159419059753,
                -0.20870360732078552,
                0.7804827094078064
            ],
            "translation" : [
                7.481131553649902,
                5.34366512298584,
                6.5076398849487305
            ]
        }
    ],
    "materials" : [
        {
            "doubleSided" : true,
            "name" : "Cactus",
            "pbrMetallicRoughness" : {
                "baseColorFactor" : [
                    0.002941729035228491,
                    0.12370985001325607,
                    0,
                    1
                ],
                "metallicFactor" : 0,
                "roughnessFactor" : 0.5
            }
        }
    ],
    "meshes" : [
        {
            "name" : "All Cactus",
            "primitives" : [
                {
                    "attributes" : {
                        "POSITION" : 0,
                        "NORMAL" : 1
                    },
                    "indices" : 2,
                    "material" : 0
                }
            ]
        }
    ],
    "accessors" : [
        {
            "bufferView" : 0,
            "componentType" : 5126,
            "count" : 301,
            "max" : [
                185.81300354003906,
                18.321395874023438,
                -8.767704963684082
            ],
            "min" : [
                168.59217834472656,
                -18.59623908996582,
                -18.7677059173584
            ],
            "type" : "VEC3"
        },
        {
            "bufferView" : 1,
            "componentType" : 5126,
            "count" : 301,
            "type" : "VEC3"
        },
        {
            "bufferView" : 2,
            "componentType" : 5123,
            "count" : 504,
            "type" : "SCALAR"
        }
    ],
    "bufferViews" : [
        {
            "buffer" : 0,
            "byteLength" : 3612,
            "byteOffset" : 0
        },
        {
            "buffer" : 0,
            "byteLength" : 3612,
            "byteOffset" : 3612
        },
        {
            "buffer" : 0,
            "byteLength" : 1008,
            "byteOffset" : 7224
        }
    ],
    "buffers" : [
        {
            "byteLength" : 8232,
            "uri" : "data:application/octet-stream;base64,"
        }
    ]
}
